:SAMPLES-PER-SECOND 30
:FULLY-SPECIFIED
:DEGREES
440
root  -5.28044 34.4326 1.85702 9.79508 27.5947 1.79357
LeftUpLeg  -11.9087 7.45059 1.88882
LeftLeg  18.8916 4.02437 1.09089
LeftFoot  -0.859767 -0.000509826 -0.0671923
LeftToes  -21.2427 6.91067e-007 1.07128e-007
Spine  3.39914 -3.20308 2.49711
Spine1  6.62629 -6.57299 4.83336
RightShoulder  0.00516995 3.54715 3.49688
RightArm  -15.7257 -12.0438 75.174
RightForeArm  15.5692 30.7284 6.0126
RightHand  -0.863952 -9.23645 11.0269
LeftShoulder1  0.0176447 -7.83468 -3.09813
LeftArm  6.34134 15.753 -74.5605
LeftForeArm  21.1164 -47.988 -11.3053
LeftHand  -0.00402681 1.53441 -0.667604
HEad  -25.5077 -55.0364 22.6134
RightUpLeg  -14.6666 -8.16581 -1.14762
RightLeg  5.91477 23.0652 0.885659
RightFoot  7.51978 -0.184006 3.17668
RightToes  -27.8781 -0.129586 -0.236951
441
root  -5.07221 34.4249 1.68786 9.95312 27.4476 1.49534
LeftUpLeg  -11.8598 7.44453 1.50598
LeftLeg  17.9931 4.68282 1.19102
LeftFoot  -1.22098 0.00102412 -0.104243
LeftToes  -19.3586 6.91067e-007 1.07128e-007
Spine  3.30018 -3.52423 2.47708
Spine1  6.4436 -7.19697 4.77768
RightShoulder  0.0015233 2.72149 3.89001
RightArm  -11.9609 -18.0126 72.4505
RightForeArm  6.90038 37.5298 7.7783
RightHand  -1.14197 -11.3811 11.7859
LeftShoulder1  0.0101477 -7.57446 -3.95522
LeftArm  2.95938 21.6965 -71.5276
LeftForeArm  17.5449 -48.1059 -11.3511
LeftHand  -0.0736519 3.29475 -2.92428
HEad  -25.1894 -54.4405 22.2279
RightUpLeg  -14.9999 -9.40122 -1.09946
RightLeg  5.68272 24.4406 0.839782
RightFoot  7.64803 -0.205442 3.45009
RightToes  -28.1474 -0.131374 -0.238886
442
root  -4.90133 34.426 1.5324 10.1101 26.411 1.08676
LeftUpLeg  -11.6216 8.10948 1.24162
LeftLeg  16.8549 5.34801 1.24774
LeftFoot  -1.61712 0.00351029 -0.154525
LeftToes  -17.5811 6.91067e-007 1.07128e-007
Spine  3.29298 -3.55581 2.37519
Spine1  6.45323 -7.24269 4.56427
RightShoulder  -0.00150843 1.8348 3.70108
RightArm  -9.51274 -23.788 70.9225
RightForeArm  -0.536387 43.829 9.7336
RightHand  -1.41689 -13.0518 12.7026
LeftShoulder1  0.00220685 -6.84799 -4.65912
LeftArm  3.70651 28.5609 -67.5725
LeftForeArm  12.0617 -51.6767 -12.9088
LeftHand  -0.206349 5.38881 -4.74643
HEad  -25.2663 -53.7046 21.9884
RightUpLeg  -15.3839 -8.6499 -1.10749
RightLeg  5.20451 24.71 0.648456
RightFoot  8.19287 -0.240938 3.74046
RightToes  -29.1441 -0.136718 -0.245973
443
root  -4.71086 34.4369 1.37481 10.2082 25.435 0.904587
LeftUpLeg  -10.9658 7.63192 0.838227
LeftLeg  15.2132 6.8247 1.38708
LeftFoot  -1.62843 0.00570287 -0.197557
LeftToes  -16.1451 6.91067e-007 1.07128e-007
Spine  3.37277 -3.621 2.16421
Spine1  6.63267 -7.35588 4.1286
RightShoulder  -0.0033102 1.1577 3.29407
RightArm  -5.76967 -29.5078 69.5225
RightForeArm  -7.83794 50.0061 12.1111
RightHand  -1.69493 -15.2977 12.9357
LeftShoulder1  -0.00241474 -5.82176 -4.81074
LeftArm  7.80581 36.0053 -63.397
LeftForeArm  7.77595 -58.2794 -16.6069
LeftHand  -0.427996 8.1591 -6.36001
HEad  -25.2565 -52.8824 21.7394
RightUpLeg  -15.5876 -7.92488 -1.37645
RightLeg  4.72937 24.9033 0.453068
RightFoot  8.6971 -0.275888 4.0041
RightToes  -29.7425 -0.142152 -0.250172
444
root  -4.52729 34.4532 1.19084 10.2824 24.2195 0.85021
LeftUpLeg  -10.332 7.88376 0.322632
LeftLeg  13.6565 7.73582 1.35455
LeftFoot  -1.32023 0.00432805 -0.181346
LeftToes  -15.5453 6.91067e-007 1.07128e-007
Spine  3.51053 -3.52142 1.90175
Spine1  6.92661 -7.13983 3.59479
RightShoulder  -0.0046156 0.550658 2.79492
RightArm  0.0451472 -35.116 67.7345
RightForeArm  -12.0079 56.9474 15.6933
RightHand  -1.37683 -17.614 9.23594
LeftShoulder1  -0.00462112 -4.62772 -4.56985
LeftArm  12.5777 42.5561 -59.7521
LeftForeArm  3.83386 -65.0455 -22.3141
LeftHand  -0.741799 11.022 -8.04194
HEad  -25.3366 -52.1387 21.7039
RightUpLeg  -15.8496 -7.16305 -1.75289
RightLeg  4.3573 25.2541 0.300377
RightFoot  9.2603 -0.320258 4.33006
RightToes  -30.0552 -0.144301 -0.252349
445
root  -4.34512 34.459 0.968739 10.2581 22.8808 0.795918
LeftUpLeg  -9.73799 8.90168 -0.208513
LeftLeg  12.2166 7.95398 1.18826
LeftFoot  -1.10842 0.00276766 -0.157329
LeftToes  -14.7941 6.91067e-007 1.07128e-007
Spine  3.66493 -3.19431 1.55476
Spine1  7.25453 -6.46248 2.90229
RightShoulder  -0.00548955 0.226357 2.3831
RightArm  5.37126 -40.6666 65.9796
RightForeArm  -14.0792 63.6421 20.8098
RightHand  -0.834047 -20.3295 5.01785
LeftShoulder1  -0.00657759 -3.88351 -3.78113
LeftArm  16.7857 48.2328 -57.3473
LeftForeArm  5.11188 -71.0793 -31.0384
LeftHand  -0.672509 12.7591 -6.37603
HEad  -25.296 -51.9157 21.8083
RightUpLeg  -16.1995 -6.7805 -2.07839
RightLeg  4.19293 26.1075 0.23788
RightFoot  9.74516 -0.371462 4.73255
RightToes  -30.3585 -0.144916 -0.252973
446
root  -4.16188 34.4595 0.698733 10.1611 21.8578 0.703151
LeftUpLeg  -9.36579 10.1568 -0.704946
LeftLeg  11.0979 7.57586 0.981861
LeftFoot  -0.951241 0.00138218 -0.129989
LeftToes  -14.4685 6.91067e-007 1.07128e-007
Spine  3.87025 -2.97159 1.24892
Spine1  7.67053 -5.99526 2.29005
RightShoulder  -0.00605734 0.165746 1.83402
RightArm  9.84413 -45.4755 64.5391
RightForeArm  -15.4509 69.0494 27.3589
RightHand  -0.833045 -22.5919 4.53749
LeftShoulder1  -0.00829498 -3.1127 -3.11116
LeftArm  21.1409 52.8398 -55.7938
LeftForeArm  13.0797 -76.1813 -45.9555
LeftHand  -0.0255473 16.2033 -0.549184
HEad  -25.2191 -51.4572 21.873
RightUpLeg  -16.4815 -6.43883 -2.40489
RightLeg  3.87871 26.6935 0.101919
RightFoot  10.3465 -0.432682 5.15353
RightToes  -30.5069 -0.144894 -0.252952
447
root  -3.98698 34.4653 0.365844 10.2397 21.1883 0.805708
LeftUpLeg  -9.24295 10.9585 -1.43193
LeftLeg  9.94215 7.3422 0.802052
LeftFoot  -0.6487 -0.000497085 -0.0878166
LeftToes  -13.5694 6.91067e-007 1.07128e-007
Spine  4.06165 -2.8592 0.840712
Spine1  8.06159 -5.73972 1.48544
RightShoulder  -0.00637039 -0.0665081 1.53851
RightArm  13.2092 -48.8994 63.5064
RightForeArm  -13.8964 72.9063 34.8884
RightHand  -0.588831 -24.462 3.08507
LeftShoulder1  -0.00978412 -2.76091 -2.98266
LeftArm  24.9959 56.1691 -54.4011
LeftForeArm  25.9277 -79.1206 -66.8635
LeftHand  0.687256 18.923 3.7509
HEad  -25.3372 -50.9309 22.142
RightUpLeg  -17.0675 -5.94118 -2.95888
RightLeg  3.8971 26.7227 0.11031
RightFoot  10.977 -0.489888 5.47228
RightToes  -30.5923 -0.144446 -0.252501
448
root  -3.85877 34.4616 -0.011049 10.3327 21.0404 0.9202
LeftUpLeg  -9.48531 11.2237 -2.07292
LeftLeg  9.24569 7.04801 0.683758
LeftFoot  -0.404118 -0.000192018 -0.0544568
LeftToes  -12.8438 6.91067e-007 1.07128e-007
Spine  4.20099 -2.9172 0.458009
Spine1  8.35292 -5.82401 0.719773
RightShoulder  -0.0065631 -0.278941 1.4059
RightArm  15.4719 -50.7787 62.7945
RightForeArm  -10.8635 75.4026 42.4666
RightHand  -0.198337 -26.2134 1.22155
LeftShoulder1  -0.0110558 -2.45259 -3.1762
LeftArm  26.3358 57.7102 -54.1979
LeftForeArm  35.5154 -79.9094 -82.9183
LeftHand  1.88652 21.3247 9.62278
HEad  -25.3412 -50.4666 22.2356
RightUpLeg  -17.6817 -5.1834 -3.56347
RightLeg  3.90491 25.9386 0.110336
RightFoot  11.7177 -0.540375 5.63962
RightToes  -30.6314 -0.143781 -0.251829
449
root  -3.75645 34.4398 -0.400338 10.2678 20.4038 0.905656
LeftUpLeg  -9.63557 12.1508 -2.59987
LeftLeg  8.55844 6.559 0.557393
LeftFoot  -0.184689 0.000218825 -0.0257224
LeftToes  -12.7249 6.91067e-007 1.07128e-007
Spine  4.33016 -2.80421 0.0767587
Spine1  8.62915 -5.56432 -0.0539627
RightShoulder  -0.00672985 -0.125899 1.53926
RightArm  15.9036 -51.114 63.0717
RightForeArm  -9.58545 76.2444 45.895
RightHand  0.244366 -27.1214 -0.64296
LeftShoulder1  -0.012121 -2.26927 -3.57857
LeftArm  24.2358 57.4946 -55.3438
LeftForeArm  33.967 -79.9802 -86.5798
LeftHand  3.03308 22.7175 14.6413
HEad  -25.0046 -49.9885 22.1001
RightUpLeg  -18.371 -4.2276 -4.0165
RightLeg  4.06622 25.4486 0.177497
RightFoot  12.4581 -0.599118 5.86211
RightToes  -30.9016 -0.143109 -0.25115
450
root  -3.68649 34.4093 -0.766212 10.1375 19.5443 0.65433
LeftUpLeg  -9.65296 13.1854 -2.86894
LeftLeg  7.6065 6.21351 0.424574
LeftFoot  0.00498719 0.00101253 -0.00371313
LeftToes  -12.5431 6.91067e-007 1.07128e-007
Spine  4.46323 -2.59071 -0.289555
Spine1  8.91379 -5.10566 -0.789905
RightShoulder  -0.00699405 0.267857 1.82279
RightArm  14.9656 -49.7675 64.6317
RightForeArm  -15.3465 75.0096 40.9891
RightHand  0.572755 -27.6586 -1.95597
LeftShoulder1  -0.0129904 -2.17827 -3.96352
LeftArm  22.0899 56.147 -56.1681
LeftForeArm  24.1616 -79.9195 -81.977
LeftHand  3.92117 24.9196 17.2387
HEad  -24.5172 -49.1742 21.9157
RightUpLeg  -19.1032 -3.50633 -4.09707
RightLeg  4.18477 25.3886 0.22793
RightFoot  13.217 -0.675001 6.19855
RightToes  -30.814 -0.14264 -0.250674
451
root  -3.65836 34.3911 -1.14611 10.0176 18.8703 0.591756
LeftUpLeg  -9.70445 13.468 -3.22931
LeftLeg  6.7067 6.47672 0.340755
LeftFoot  0.374829 0.000285467 0.038024
LeftToes  -12.0097 6.91067e-007 1.07128e-007
Spine  4.55892 -2.4573 -0.693814
Spine1  9.12352 -4.81068 -1.6071
RightShoulder  -0.00748421 0.992953 2.22414
RightArm  13.2044 -47.3886 67.0415
RightForeArm  -23.6734 71.7488 32.137
RightHand  0.648586 -28.0992 -2.22088
LeftShoulder1  -0.0136748 -2.3789 -4.20515
LeftArm  22.0055 54.5525 -55.8934
LeftForeArm  10.1535 -79.4283 -70.3587
LeftHand  4.32494 25.5914 18.5047
HEad  -23.6107 -48.1186 21.3594
RightUpLeg  -19.9291 -4.0438 -3.93578
RightLeg  4.53393 25.7172 0.382422
RightFoot  14.035 -0.776043 6.67541
RightToes  -30.6628 -0.142583 -0.250615
452
root  -3.6485 34.3977 -1.49914 9.98513 18.382 0.491028
LeftUpLeg  -10.1873 13.5856 -3.49861
LeftLeg  6.54387 6.7539 0.336123
LeftFoot  0.650377 -0.000410026 0.072234
LeftToes  -11.5419 6.91067e-007 1.07128e-007
Spine  4.63906 -2.38752 -1.07504
Spine1  9.30296 -4.64678 -2.35497
RightShoulder  -0.00810423 1.86144 3.00154
RightArm  10.3845 -44.363 69.6023
RightForeArm  -30.6969 66.4181 23.6552
RightHand  0.43076 -27.9675 -1.35936
LeftShoulder1  -0.0141851 -2.76051 -4.44568
LeftArm  21.4714 53.2656 -56.0962
LeftForeArm  -5.2626 -77.934 -55.2157
LeftHand  4.24417 25.9098 17.9266
HEad  -22.9854 -46.672 20.7721
RightUpLeg  -21.0926 -6.24758 -3.0581
RightLeg  5.42664 26.0059 0.778267
RightFoot  14.8236 -0.880612 7.1389
RightToes  -29.8875 -0.143147 -0.251184
453
root  -3.63441 34.4183 -1.80603 9.90821 17.85 0.0864241
LeftUpLeg  -10.7603 13.8207 -3.46781
LeftLeg  6.61421 7.02045 0.357963
LeftFoot  0.800435 -0.000716621 0.0943038
LeftToes  -10.9565 6.91067e-007 1.07128e-007
Spine  4.65224 -2.23192 -1.37846
Spine1  9.34123 -4.31725 -2.93655
RightShoulder  -0.00873723 2.39553 3.61645
RightArm  6.38843 -40.9889 72.6194
RightForeArm  -33.9877 59.2031 17.06
RightHand  -0.25524 -27.1667 1.42603
LeftShoulder1  -0.0145322 -2.96588 -4.77594
LeftArm  20.3071 52.1442 -56.9773
LeftForeArm  -19.1381 -75.8588 -44.0613
LeftHand  4.48633 27.2634 17.9763
HEad  -22.3095 -44.4673 19.9773
RightUpLeg  -22.1793 -8.34987 -1.78235
RightLeg  6.05212 25.92 1.0496
RightFoot  15.8998 -1.01313 7.62259
RightToes  -30.183 -0.145183 -0.253236
